<svg width="24" height="27" viewBox="0 0 24 27" fill="none" xmlns="http://www.w3.org/2000/svg">
<path fill-rule="evenodd" clip-rule="evenodd" d="M0.189098 0.192016C0.0835352 0.297605 -0.00161873 0.44715 2.33564e-05 0.524426C0.00158725 0.601623 0.471928 5.90345 1.04525 12.3061C1.98429 22.7943 2.10213 23.9617 2.23482 24.0912C2.32905 24.1833 4.11165 24.7326 7.18814 25.6175L11.9943 27L16.8061 25.616C19.8367 24.7443 21.6724 24.1793 21.7652 24.0897C21.8979 23.9615 22.0152 22.8001 22.9547 12.3061C23.5281 5.90345 23.9984 0.601623 24 0.524426C24.0016 0.44715 23.9165 0.297605 23.8109 0.192016L23.619 0H12H0.380987L0.189098 0.192016ZM22.7521 1.34919C22.7526 1.60386 20.8748 22.925 20.835 23.1165C20.8058 23.2571 20.2613 23.4304 16.4727 24.5048C14.0919 25.18 12.078 25.7325 11.9976 25.7325C11.917 25.7325 9.90399 25.1782 7.52414 24.5006C3.79144 23.4379 3.19271 23.2472 3.16456 23.1123C3.12804 22.9369 1.24457 1.52455 1.24684 1.31009C1.24817 1.18041 1.81289 1.17321 12 1.17321H22.7518L22.7521 1.34919ZM5.15797 5.85527C5.15797 6.12558 5.76312 13.1966 5.82654 13.6679L5.87134 14.0003H10.64H15.4086L15.3674 14.2545C15.3448 14.3943 15.2692 15.1951 15.1996 16.0339C15.13 16.8728 15.0501 17.5803 15.0221 17.6062C14.9942 17.6322 14.3007 17.8373 13.481 18.062L11.9905 18.4707L10.5096 18.0647C9.69506 17.8414 8.99725 17.6296 8.95893 17.5939C8.92054 17.5583 8.85314 17.0343 8.80911 16.4296L8.72896 15.33H7.32967H5.9303L5.97479 15.6624C5.99927 15.8453 6.09146 16.8387 6.17959 17.87C6.26779 18.9013 6.34676 19.7502 6.35498 19.7564C6.36326 19.7626 7.63119 20.1199 9.17272 20.5504L11.9754 21.3331L14.8027 20.5397L17.63 19.7463L17.9961 15.7196C18.1974 13.505 18.3646 11.5962 18.3675 11.4779L18.3729 11.2628H13.3719H8.37107L8.33033 11.0086C8.27653 10.6733 8.12937 8.91634 8.12937 8.61021V8.37001L13.388 8.34991L18.6465 8.32981L18.7384 7.31302C18.789 6.75379 18.833 6.1467 18.8362 5.96383L18.842 5.63142H12H5.15797V5.85527Z" fill="url(#paint0_linear_1_8)"/>
<defs>
<linearGradient id="paint0_linear_1_8" x1="6.72085e-08" y1="14" x2="24" y2="14" gradientUnits="userSpaceOnUse">
<stop stop-color="#AA367C"/>
<stop offset="1" stop-color="#4A2FBD"/>
</linearGradient>
</defs>
</svg>
