<svg width="37" height="24" viewBox="0 0 37 24" fill="none" xmlns="http://www.w3.org/2000/svg">
<path d="M21.0706 7.57895L20.9136 5.43492V5.05263H32.1419L31.8343 10.1053L31.4019 17.3684L26.5438 19.0115L21.6856 17.3684L21.5006 13.8947H23.9609L24.021 15.4737L26.5438 16.3569L29.0665 15.4737L29.2491 12.6316H23.8384L23.7135 10.1053H29.3741L29.5567 7.57895H21.0706Z" fill="#003046"/>
<path d="M5.07698 12.1492C5.02172 11.7303 4.49442 5.44496 4.49442 5.20469V5.00571H16.418L16.413 5.30118C16.4102 5.46373 16.3719 6.00337 16.3278 6.50046L16.2477 7.40428L7.08355 7.44001V7.65352C7.08355 7.92563 7.21178 9.48738 7.25866 9.78542L7.29416 10.0114H16.0093L16.0046 10.2026C16.0021 10.3077 15.8564 12.0044 15.681 13.973L15.362 17.5523L10.4348 18.9628L7.99268 18.267C6.64946 17.8844 5.54465 17.5668 5.53743 17.5612C5.53027 17.5557 5.46146 16.8012 5.38461 15.8844C5.30782 14.9677 5.22749 14.0847 5.20616 13.9221L5.16739 13.6267H7.60601L7.67585 14.6041C7.71421 15.1416 7.77294 15.6074 7.80639 15.639C7.83978 15.6708 8.44782 15.859 9.15758 16.0575L10.448 16.4184L11.7467 16.0551C12.461 15.8554 13.0652 15.6731 13.0896 15.65C13.114 15.6269 13.1836 14.998 13.2442 14.2524C13.3049 13.5068 13.3707 12.7949 13.3904 12.6707L13.4263 12.4447H5.11601L5.07698 12.1492Z" fill="#003046"/>
<path fill-rule="evenodd" clip-rule="evenodd" d="M2.03217e-05 0.466156C-0.00140949 0.397467 0.0727934 0.264539 0.164774 0.170679L0.331976 0H37L35.1548 21.4737L26.5438 24L18.4253 21.6182C17.7395 21.8465 16.4299 22.2458 14.644 22.7698L10.4513 24L6.26341 22.7711C3.5827 21.9845 2.02942 21.4963 1.94732 21.4144C1.8317 21.2993 1.72902 20.2616 0.910785 10.9388C0.411217 5.24751 0.00138263 0.534778 2.03217e-05 0.466156ZM19.1279 20.5097L26.5438 22.6875L34.0039 20.4967L35.6569 1.26316H20.8457C20.7098 2.84655 20.3817 6.60956 20.0017 10.9388C19.4898 16.771 19.258 19.3603 19.1279 20.5097ZM18.1546 20.548C18.1893 20.3778 19.8256 1.42565 19.8251 1.19928L19.8249 1.04285H10.4562C1.57967 1.04285 1.0876 1.04926 1.08644 1.16453C1.08446 1.35516 2.72563 20.3884 2.75745 20.5443C2.78198 20.6642 3.30369 20.8337 6.55619 21.7783C8.62987 22.3806 10.3839 22.8733 10.4542 22.8733C10.5242 22.8733 12.279 22.3822 14.3535 21.782C17.6548 20.827 18.1292 20.673 18.1546 20.548Z" fill="#003046"/>
</svg>
