<svg width="16" height="16" viewBox="0 0 16 16" fill="none" xmlns="http://www.w3.org/2000/svg">
<path d="M13.5 7V4" stroke="#003046" stroke-linecap="round" stroke-linejoin="round"/>
<path d="M15 5.5H12" stroke="#003046" stroke-linecap="round" stroke-linejoin="round"/>
<path d="M10.5 1.5V3.5" stroke="#003046" stroke-linecap="round" stroke-linejoin="round"/>
<path d="M11.5 2.5H9.5" stroke="#003046" stroke-linecap="round" stroke-linejoin="round"/>
<path d="M13.5434 9.5373C12.5617 9.81258 11.5245 9.8216 10.5382 9.56344C9.5518 9.30528 8.65198 8.78924 7.93106 8.06832C7.21014 7.3474 6.69411 6.44758 6.43594 5.46127C6.17778 4.47497 6.18681 3.43772 6.46208 2.45605C5.49425 2.72543 4.61388 3.24369 3.90867 3.95919C3.20346 4.6747 2.69802 5.56249 2.4427 6.53413C2.18738 7.50577 2.19108 8.52734 2.45344 9.4971C2.7158 10.4669 3.22766 11.351 3.93804 12.0614C4.64841 12.7717 5.53251 13.2836 6.50228 13.546C7.47204 13.8083 8.49362 13.812 9.46525 13.5567C10.4369 13.3014 11.3247 12.7959 12.0402 12.0907C12.7557 11.3855 13.274 10.5052 13.5434 9.5373Z" stroke="#003046" stroke-linecap="round" stroke-linejoin="round"/>
</svg>
