<svg width="24" height="25" viewBox="0 0 24 25" fill="none" xmlns="http://www.w3.org/2000/svg">
<path d="M15.8965 0.0080462L0.556644 1.14453C0.551952 1.14487 0.547266 1.14527 0.54258 1.14572C0.534744 1.14677 0.526932 1.14796 0.519144 1.14932C0.504612 1.15117 0.490146 1.15357 0.475782 1.15651C0.469902 1.15802 0.46404 1.15962 0.458202 1.16131C0.451536 1.16279 0.444894 1.16439 0.438282 1.1661C0.423654 1.17033 0.409194 1.17513 0.39492 1.18049C0.385446 1.18424 0.376068 1.18824 0.366798 1.19248C0.361296 1.19479 0.355824 1.19719 0.350394 1.19967C0.318882 1.21455 0.28869 1.2322 0.26016 1.25242C0.255036 1.25554 0.249954 1.25874 0.244926 1.26201C0.23244 1.27151 0.22032 1.28151 0.208596 1.29198C0.206232 1.29436 0.203892 1.29676 0.201564 1.29918C0.191502 1.30804 0.181734 1.31723 0.172266 1.32675C0.16626 1.33341 0.160398 1.3402 0.154686 1.34713C0.145758 1.35722 0.13716 1.36762 0.128904 1.3783C0.12573 1.38226 0.122604 1.38625 0.119532 1.39028C0.110466 1.40273 0.101868 1.41553 0.09375 1.42865C0.091362 1.43262 0.0890159 1.43661 0.0867179 1.44063C0.0788219 1.45354 0.071394 1.46673 0.064452 1.48019C0.061632 1.48574 0.058902 1.49134 0.05625 1.49697C0.04983 1.51152 0.0439679 1.52632 0.0386699 1.54133C0.0378839 1.54293 0.0370981 1.54452 0.0363241 1.54613C0.0242281 1.58079 0.0152101 1.6165 0.00937214 1.65282C0.00810014 1.65919 0.00692994 1.66559 0.00585594 1.672C0.00364794 1.68832 0.00208787 1.70471 0.00116987 1.72116C0.00116987 1.72195 0.00116987 1.72275 0.00116987 1.72356C0.000479872 1.73473 9e-05 1.74592 0 1.75713V17.5552C0 18.1847 0.18909 18.8003 0.54258 19.3162C0.55182 19.3298 0.561594 19.343 0.571878 19.3558L4.27618 23.9161C4.31192 23.9819 4.35919 24.0404 4.41563 24.0887L4.65 24.3765C4.67976 24.4131 4.71358 24.4461 4.75079 24.4748C5.10305 24.8244 5.59031 25.0308 6.11602 24.9963L22.316 23.9269C23.2575 23.8647 24 23.054 24 22.0891V6.13521C24 5.5684 23.7393 5.0659 23.3426 4.7278C23.3145 4.69491 23.2831 4.66516 23.2488 4.63909L22.9582 4.4197C22.9219 4.38429 22.8813 4.35368 22.8375 4.32859L17.8945 0.599064C17.319 0.164625 16.6096 -0.0448876 15.8965 0.0080462ZM15.9832 1.23204C16.4113 1.20027 16.8371 1.32652 17.182 1.5869L20.8605 4.36336L5.84532 5.36917C5.32835 5.40369 4.82262 5.20801 4.45547 4.8333H4.4543L1.95235 2.27262L15.9832 1.23204ZM1.20001 3.23887L3.60704 5.70124L4.2 6.30784V21.9009L1.52344 18.6053C1.31396 18.2974 1.20001 17.9314 1.20001 17.5552V3.23887ZM22.1613 5.52262C22.5161 5.49933 22.8 5.77206 22.8 6.13522V22.0891C22.8 22.4181 22.5596 22.6805 22.2387 22.7017L6.03867 23.7711C5.86251 23.7826 5.70381 23.7209 5.58868 23.6116C5.58829 23.6112 5.58789 23.6108 5.5875 23.6104L5.58633 23.6092C5.58389 23.6069 5.58289 23.6032 5.58047 23.6008C5.57816 23.5976 5.57582 23.5944 5.57344 23.5913C5.46735 23.4815 5.4 23.3317 5.4 23.1585V7.20458C5.4 6.87468 5.64 6.61323 5.96133 6.59198L22.1613 5.52262ZM20.0977 8.50888L17.0531 8.68151C16.5887 8.73061 16.0477 9.08462 16.0477 9.65975L17.3977 9.77483V16.3372L12.7289 8.97043L9.22969 9.17183C8.57509 9.22094 8.39649 9.71865 8.39649 10.3515H9.74649V19.9049C9.74649 19.9049 9.11511 20.0792 8.90391 20.135C8.45511 20.2535 8.39649 20.6528 8.39649 20.9407C8.39649 20.9407 10.648 20.825 11.6836 20.7452C12.859 20.6532 12.8977 19.8473 12.8977 19.8473L11.5477 19.5596V12.4806C11.5477 12.4806 14.9795 18.1211 16.0289 19.779C16.5227 20.5579 16.8914 20.7105 17.5406 20.7105C18.0734 20.7105 18.5773 20.5495 19.1965 20.207V9.55067C19.1965 9.55067 19.3105 9.54446 19.6699 9.426C20.0797 9.29035 20.0977 8.91153 20.0977 8.50888Z" fill="url(#paint0_linear_702_29)"/>
<defs>
<linearGradient id="paint0_linear_702_29" x1="-1.46289" y1="11.1783" x2="26.8381" y2="11.278" gradientUnits="userSpaceOnUse">
<stop stop-color="#AA367C"/>
<stop offset="1" stop-color="#4A2FBD"/>
</linearGradient>
</defs>
</svg>
