<svg width="24" height="31" viewBox="0 0 24 31" fill="none" xmlns="http://www.w3.org/2000/svg">
<path fill-rule="evenodd" clip-rule="evenodd" d="M1.42576 0.0332958C0.761586 0.145346 0.213922 0.65658 0.0458319 1.32149C0.00511918 1.48244 0 3.07005 0 15.5076C0 27.9452 0.00511918 29.5328 0.0458319 29.6937C0.195041 30.2839 0.631317 30.7444 1.21957 30.9326L1.43036 31H12H22.5696L22.7804 30.9326C23.3671 30.7449 23.8002 30.2872 23.9535 29.6926C23.995 29.5318 24 28.301 24 18.2213V6.93007L20.5707 3.46504L17.1413 0L9.36111 0.00355764C5.08201 0.0055037 1.5111 0.0188828 1.42576 0.0332958ZM21.3337 0.0746494C21.2602 0.148782 21.2597 0.15313 21.2597 0.743605V1.33791H20.9756C20.8194 1.33791 20.6566 1.35132 20.6139 1.36771C20.5133 1.4063 20.4567 1.52872 20.494 1.62681C20.5094 1.66728 20.8849 2.07039 21.3285 2.5226C22.0891 3.29795 22.1413 3.34478 22.2443 3.34478C22.3476 3.34478 22.3989 3.29825 23.1759 2.50098C23.8913 1.76695 23.9983 1.64493 23.9991 1.56307C24.0007 1.39422 23.919 1.35454 23.5452 1.34284L23.2171 1.33253V0.729283V0.126037L23.1377 0.0630339C23.0618 0.00273669 23.0224 0 22.233 0H21.4075L21.3337 0.0746494ZM15.4003 1.72125C15.4432 1.73789 15.448 2.00556 15.4484 4.43508C15.4489 7.40068 15.444 7.31466 15.6357 7.71561C15.7747 8.00612 16.0852 8.31776 16.3825 8.46511C16.783 8.66364 16.7853 8.66376 19.7014 8.66495L22.3137 8.66601V18.974V29.282H12H1.68632V15.5127C1.68632 7.93953 1.69536 1.73421 1.70641 1.72308C1.73146 1.69775 15.335 1.69595 15.4003 1.72125ZM19.3913 4.69649C20.8794 6.19915 21.5888 6.93555 21.5594 6.94689C21.5353 6.95616 20.5333 6.96021 19.3325 6.95589L17.1493 6.94801L17.1416 4.70549C17.1374 3.47212 17.1442 2.46297 17.1567 2.46297C17.1693 2.46297 18.1749 3.46805 19.3913 4.69649ZM10.9611 4.89903C10.7077 4.94182 10.4867 5.06597 10.2674 5.28861C9.31065 6.25999 9.40574 8.73893 10.475 10.7002L10.6565 11.0331L10.498 11.4383C10.213 12.167 9.73132 13.2341 9.26286 14.1742L8.803 15.0971L8.54957 15.1965C8.41015 15.2511 8.20125 15.333 8.08532 15.3783C7.70674 15.5265 6.91926 15.9445 6.51945 16.2095C5.78659 16.6954 5.14223 17.3163 4.74357 17.9209C4.3587 18.5045 4.2318 18.8813 4.25155 19.382C4.26215 19.6502 4.27567 19.7137 4.35966 19.8895C4.52582 20.2372 4.83815 20.4616 5.25648 20.534C5.63045 20.5987 6.18182 20.4559 6.59907 20.1863C6.87303 20.0094 7.46445 19.3918 7.81828 18.9132C8.33499 18.2143 8.92631 17.2837 9.42507 16.3845L9.58802 16.0907L9.95085 15.9821C10.917 15.6928 12.2768 15.451 13.5631 15.3399L14.1024 15.2933L14.5418 15.7288C15.8465 17.0219 16.8486 17.5735 17.8959 17.5749C18.2944 17.5754 18.5987 17.5085 18.9348 17.3466C19.2829 17.1789 19.5028 16.9691 19.6424 16.6714C19.7321 16.4803 19.739 16.4424 19.739 16.1461C19.739 15.8413 19.7341 15.8164 19.6287 15.5936C19.4419 15.1987 19.0793 14.8869 18.5152 14.6362C17.7339 14.289 16.8924 14.145 15.487 14.1181L14.6077 14.1013L14.2566 13.687C13.9002 13.2665 13.3882 12.6305 12.4805 11.4806L11.978 10.844L12.1467 10.3099C12.4375 9.38909 12.5422 8.84362 12.587 8.01594C12.6459 6.92761 12.5089 5.96629 12.2313 5.51888C12.1086 5.32124 11.9845 5.17714 11.8644 5.09312C11.6178 4.92056 11.2727 4.8464 10.9611 4.89903ZM11.3207 6.37183C11.4156 6.68189 11.4531 7.15718 11.4321 7.78421C11.4217 8.0936 11.3991 8.43568 11.3817 8.54438C11.3321 8.85545 11.1992 9.39578 11.1724 9.39578C11.1372 9.39578 10.969 8.84967 10.9009 8.51392C10.6918 7.48336 10.7727 6.46913 11.0921 6.11738L11.1561 6.04696L11.2088 6.11279C11.2379 6.14901 11.2883 6.26559 11.3207 6.37183ZM12.1077 12.9078C12.4259 13.3092 12.7792 13.7496 12.8927 13.8866C13.075 14.1065 13.1323 14.2001 13.0847 14.2001C13.0767 14.2001 12.8227 14.2284 12.5201 14.263C11.9676 14.3261 11.0639 14.4824 10.6149 14.5924C10.4825 14.6249 10.3688 14.646 10.3624 14.6395C10.3559 14.6329 10.4866 14.3433 10.6528 13.9957C10.8964 13.4867 11.2604 12.6744 11.4446 12.2288C11.4607 12.1899 11.4863 12.1626 11.5015 12.168C11.5166 12.1735 11.7894 12.5064 12.1077 12.9078ZM16.7138 15.3713C17.1293 15.4338 17.3864 15.4921 17.7242 15.6005C18.0887 15.7175 18.3334 15.8448 18.4916 15.9998C18.6367 16.1421 18.6217 16.1961 18.407 16.3028C18.2804 16.3658 18.2208 16.3742 17.9021 16.3739C17.604 16.3737 17.5025 16.3611 17.322 16.3016C16.9473 16.178 16.3404 15.7938 15.9448 15.4295L15.7942 15.2909L16.1104 15.3096C16.2843 15.3198 16.5558 15.3476 16.7138 15.3713ZM7.75944 16.888C7.75056 16.9114 7.62661 17.1113 7.48403 17.3323C6.83383 18.34 6.19245 19.0857 5.8145 19.2734C5.69631 19.3321 5.57517 19.3693 5.50199 19.3693H5.3825L5.40136 19.2503C5.45396 18.9181 5.76012 18.4461 6.23223 17.9695C6.62885 17.569 6.88562 17.3654 7.37767 17.0611C7.73658 16.8391 7.78666 16.8164 7.75944 16.888ZM6.44847 21.8759C6.37632 21.8996 6.28309 21.9508 6.24133 21.9897C6.08046 22.1394 6.08275 22.1077 6.08347 24.165C6.08411 25.9576 6.08754 26.0816 6.1399 26.1981C6.27957 26.5085 6.64394 26.5999 6.90745 26.3907C7.07819 26.255 7.0903 26.196 7.10665 25.4203L7.12171 24.7057L7.75408 24.6871C8.42653 24.6674 8.61019 24.6326 8.94414 24.4621C9.10422 24.3803 9.33341 24.1428 9.42267 23.9661C9.56904 23.6763 9.61683 23.1896 9.5314 22.8584C9.3974 22.3389 9.11386 22.0496 8.59724 21.9054C8.34221 21.8342 6.64634 21.8109 6.44847 21.8759ZM10.5345 21.8784C10.3734 21.9305 10.2552 22.0551 10.2096 22.2209C10.1674 22.3744 10.1684 25.842 10.2107 26.0284C10.2483 26.1942 10.3897 26.3518 10.5382 26.3935C10.7153 26.4431 12.3003 26.4315 12.577 26.3785C13.3217 26.2359 13.8634 25.6529 14.018 24.8275C14.1554 24.0944 14.0713 23.3186 13.7974 22.7906C13.6603 22.5263 13.3264 22.1757 13.1038 22.0623C12.7496 21.8819 12.5666 21.8557 11.5784 21.8438C10.8376 21.8349 10.6497 21.8411 10.5345 21.8784ZM15.0616 21.8774C14.9126 21.9244 14.8308 21.9904 14.7598 22.1211C14.7156 22.2024 14.7091 22.4136 14.7006 24.0672C14.6938 25.3781 14.701 25.9689 14.7253 26.0818C14.8301 26.5685 15.4457 26.6624 15.6712 26.2261C15.7289 26.1143 15.7352 26.0396 15.7491 25.2987L15.7641 24.4929L16.5635 24.4777C17.4583 24.4607 17.4884 24.4537 17.576 24.2419C17.6721 24.0096 17.5518 23.7557 17.3129 23.6865C17.2562 23.6701 16.8812 23.6567 16.4795 23.6567H15.7491V23.1702V22.6837L16.6299 22.6835C17.1349 22.6834 17.5578 22.6701 17.6211 22.6523C17.6831 22.635 17.7723 22.5745 17.8244 22.5146C17.9015 22.426 17.9172 22.3822 17.9172 22.2565C17.9172 22.128 17.9024 22.0888 17.8193 21.9974C17.7574 21.9293 17.6773 21.8796 17.601 21.8618C17.4008 21.8151 15.2166 21.8286 15.0616 21.8774ZM7.97604 22.6852C8.38937 22.7529 8.54042 22.9278 8.51627 23.3109C8.48956 23.7345 8.19761 23.8865 7.45295 23.8642L7.12171 23.8543L7.11349 23.2928C7.10894 22.9839 7.11192 22.7137 7.12005 22.6922C7.1386 22.6434 7.69322 22.6388 7.97604 22.6852ZM12.3094 22.7623C12.6232 22.8433 12.862 23.0841 12.9656 23.4239C13.0302 23.6359 13.0568 24.2879 13.0116 24.5502C12.9305 25.0204 12.7349 25.3378 12.441 25.4763C12.282 25.5512 12.2375 25.557 11.7516 25.5674L11.2321 25.5784V24.1513C11.2321 23.3664 11.2423 22.7135 11.2547 22.7004C11.2895 22.6637 12.1153 22.7122 12.3094 22.7623Z" fill="#003046"/>
</svg>
