<svg width="27" height="24" viewBox="0 0 27 24" fill="none" xmlns="http://www.w3.org/2000/svg">
<path fill-rule="evenodd" clip-rule="evenodd" d="M6.88781 0.223003C6.23398 0.485154 5.54774 1.42959 5.26781 2.45247C5.03798 3.2923 5.10451 5.33892 5.40842 6.78279C5.54407 7.42713 5.51621 7.45478 4.28587 7.90042C1.4634 8.92223 0 10.3277 0 12.0166C0 13.6752 1.50919 15.1286 4.26859 16.127L5.53457 16.5851L5.35918 17.4624C5.04446 19.0381 5.16197 21.6995 5.58036 22.4756C6.73207 24.6123 9.27158 24.4959 12.2606 22.1698L13.5052 21.2011L14.8526 22.2129C16.7724 23.6542 17.8561 24.0921 19.1894 23.9647C20.4919 23.8406 21.3255 23.0681 21.7223 21.6172C21.962 20.7407 21.9018 18.7234 21.5916 17.2504C21.4559 16.6061 21.4838 16.5784 22.7141 16.1328C25.5366 15.111 27 13.7055 27 12.0166C27 10.3292 25.5364 8.92223 22.7208 7.90277L21.4654 7.44814L21.6408 6.5708C21.7372 6.08808 21.8125 4.92158 21.8082 3.97843C21.7992 1.99526 21.4237 1.08427 20.3474 0.433067C18.9326 -0.423265 17.1197 0.0408047 14.7936 1.85422L13.5177 2.84902L12.1589 1.82956C9.92779 0.155911 8.29591 -0.341598 6.88781 0.223003ZM9.59969 1.74039C10.8728 2.31357 12.4757 3.63226 12.3366 3.99215C12.2761 4.14863 11.8083 4.79704 11.2972 5.43281L10.368 6.5888L8.65793 6.83745C7.71725 6.97421 6.91286 7.0518 6.87053 7.00957C6.82798 6.96735 6.68779 6.33844 6.55884 5.612C6.25558 3.90384 6.47374 2.46469 7.13556 1.80792C7.75872 1.18951 8.34019 1.17344 9.59969 1.74039ZM19.8644 1.80792C20.5204 2.4589 20.723 3.79345 20.4342 5.56077C20.3113 6.31336 20.1761 6.96327 20.134 7.00529C20.0917 7.0473 19.2864 6.96756 18.3444 6.82802C16.6342 6.57487 16.6309 6.57315 15.7028 5.42573C15.1917 4.79383 14.7239 4.14863 14.6634 3.99215C14.4284 3.38404 17.6548 1.31512 18.8557 1.30376C19.1285 1.30119 19.5823 1.52797 19.8644 1.80792ZM14.2413 5.69324L14.818 6.44347H13.5H12.182L12.7587 5.69324C13.0758 5.28062 13.4095 4.94301 13.5 4.94301C13.5905 4.94301 13.9242 5.28062 14.2413 5.69324ZM16.1836 8.27532C16.6864 8.95117 18.252 11.783 18.252 12.0166C18.252 12.252 16.6849 15.084 16.1762 15.7677C15.8913 16.151 15.6071 16.1964 13.5 16.1964C10.7924 16.1964 11.0605 16.3696 9.61675 13.6868C8.73461 12.0481 8.73029 12.029 9.08431 11.329C10.1047 9.31149 11.0242 7.95508 11.4331 7.86419C11.6789 7.80932 12.7781 7.78531 13.8758 7.8106C15.5738 7.84962 15.9183 7.91907 16.1836 8.27532ZM8.68817 9.21096L7.992 10.4782L7.60644 9.50441C7.39433 8.96874 7.25954 8.49224 7.30663 8.44551C7.35372 8.39857 7.81877 8.27725 8.34019 8.17564C8.8614 8.07404 9.30982 7.98037 9.33617 7.96751C9.36274 7.95443 9.07114 8.5141 8.68817 9.21096ZM19.7184 8.47038C19.7618 8.51346 19.615 8.96317 19.3923 9.4699L18.9875 10.3914L18.4036 9.355C18.0827 8.78504 17.82 8.27017 17.82 8.21101C17.82 8.09676 19.5849 8.33791 19.7184 8.47038ZM6.51715 10.4368L7.16083 12.0725L6.52169 13.6521C6.17004 14.5211 5.79182 15.2319 5.68102 15.2319C5.20409 15.2319 2.33496 13.7483 1.90598 13.28C1.12342 12.4254 1.07525 11.7538 1.74031 10.9693C2.39587 10.1961 4.74379 8.9338 5.74474 8.81634C5.81558 8.80819 6.16313 9.53742 6.51715 10.4368ZM23.0723 9.5207C24.7469 10.2969 25.483 10.9425 25.7046 11.8295C25.9032 12.623 24.8661 13.734 23.2798 14.4276C21.0544 15.4006 21.2112 15.4471 20.4844 13.5998L19.8392 11.9607L20.4783 10.3811C20.83 9.51212 21.2082 8.80133 21.319 8.80133C21.4296 8.80133 22.2186 9.125 23.0723 9.5207ZM12.42 9.81114C10.3594 10.8565 10.6246 13.7376 12.8425 14.397C13.9929 14.7391 15.1721 14.1719 15.749 12.9992C16.1238 12.2374 16.1337 12.0805 15.857 11.3037C15.3135 9.77856 13.789 9.11664 12.42 9.81114ZM19.6998 15.5815C19.6562 15.6246 19.1773 15.7422 18.6356 15.8428L17.6507 16.0252L18.3293 14.7901L19.008 13.555L19.3936 14.5288C19.6057 15.0645 19.7435 15.5382 19.6998 15.5815ZM8.62466 14.7286C8.93354 15.2771 9.14285 15.7688 9.08971 15.8215C8.97869 15.9317 7.236 15.6659 7.236 15.5388C7.236 15.3813 7.93066 13.7314 7.99697 13.7314C8.03326 13.7314 8.31578 14.18 8.62466 14.7286ZM9.27655 17.3038C10.2756 17.429 10.4466 17.5385 11.2972 18.5985C11.8083 19.2353 12.2774 19.8878 12.3394 20.0486C12.4889 20.4348 10.5559 21.9434 9.30355 22.4182C7.41161 23.1352 6.47438 22.316 6.48821 19.957C6.49253 19.1856 6.57202 18.1818 6.66446 17.7265C6.82495 16.9364 6.8634 16.9049 7.50881 17.0331C7.88098 17.1068 8.67629 17.2288 9.27655 17.3038ZM20.3483 17.7505C20.4427 18.1927 20.5198 19.1858 20.5196 19.9577C20.5187 22.3196 19.5847 23.1337 17.6964 22.4182C16.4441 21.9434 14.5111 20.4348 14.6606 20.0486C14.7226 19.8878 15.1917 19.2338 15.7028 18.595C16.5966 17.4778 16.6854 17.4255 18.036 17.2193C20.2452 16.8819 20.1584 16.862 20.3483 17.7505ZM14.2413 18.34C13.9242 18.7526 13.5905 19.0902 13.5 19.0902C13.4095 19.0902 13.0758 18.7526 12.7587 18.34L12.182 17.5897H13.5H14.818L14.2413 18.34Z" fill="#003046"/>
</svg>
